<?xml version="1.0" encoding="UTF-8"?><svg id="Layer_2" xmlns="http://www.w3.org/2000/svg" viewBox="0 0 1186.74 227.25"><defs><style>.cls-1{fill:#ff484c;}</style></defs><g id="Layer_1-2"><g><path class="cls-1" d="M168.01,46.95c-9.1-20.33-24.58-34.31-45.5-42.02C112.9,1.39,102.94-.11,92.77,0H0V223.37H52.55v-53.1h37.69v-.04c7.17,.26,14.41-.48,21.68-2.09,26.28-5.85,45.37-21.19,56.33-45.66,11.19-25,10.96-50.51-.23-75.52Zm-57.97,70.63c-7.05,4.79-15.54,7.02-23.94,6.7v.04H52.55V44.3h33.55c14.42-.5,26.06,4.99,34.26,17.05,4.69,6.9,6.48,14.71,6.57,23.94-.32,12.82-5.22,24.37-16.89,32.29Z"/><path class="cls-1" d="M809.41,150.49h-131.47c4.64,12.38,12.69,21.06,24.77,25.72,16.68,6.43,37.16,3.52,51.7-14.39,13.55,9.83,27.12,19.66,40.81,29.58-.77,.95-1.43,1.83-2.15,2.66-16.03,18.39-36.18,29.06-60.38,32.12-17.73,2.24-35.13,.82-51.65-6.23-31.98-13.64-51.08-37.85-55.92-72.2-4.46-31.66,4.83-59.31,28.25-81.53,14.05-13.32,31.08-20.84,50.27-23.35,20.8-2.72,40.79,.07,59.41,9.97,23.73,12.62,38.48,32.36,44.93,58.35,3.04,12.26,3.4,24.67,1.85,37.17-.08,.67-.25,1.33-.4,2.12Zm-50.23-34.2c-3.49-12.58-18.29-30.99-45.48-28.41-10.28,.97-19.06,5.22-26.26,12.61-4.38,4.49-7.54,9.75-9.75,15.8h81.49Z"/><path class="cls-1" d="M276.45,0h52.55V117.72c.7-.98,1.1-1.49,1.46-2.03,15.02-22.83,30.04-45.67,45.02-68.52,.77-1.17,1.54-1.66,2.98-1.65,19.87,.06,39.74,.04,59.61,.04h2.09c-.63,.91-1.09,1.6-1.57,2.28-18.66,26.63-37.32,53.26-56.03,79.86-.89,1.26-.92,2.08-.05,3.38,20.11,30.09,40.17,60.22,60.23,90.34,.38,.57,.76,1.14,1.25,1.89-.53,.08-.92,.19-1.3,.19-21.06,0-42.12,0-63.18,.05-1.34,0-1.83-.69-2.4-1.61-15.53-25.31-31.08-50.61-46.62-75.91-.36-.58-.73-1.15-1.42-2.24v79.63h-52.63V0Z"/><path class="cls-1" d="M611.79,95.53c-15.24,6.8-30.31,13.52-45.51,20.3-.38-.83-.69-1.57-1.06-2.28-7.49-14.45-19.36-22.08-35.64-22.73-10.3-.41-19.68,2.33-27.75,8.84-9.77,7.88-14.45,18.38-15.25,30.74-.5,7.67,.86,15.03,3.86,22.1,6.2,14.65,21.07,24.25,37,24.13,13.29-.1,24.38-4.71,32.7-15.26,3.21-4.07,5.27-8.74,6.6-13.74,.17-.65,.34-1.3,.54-2.09,16.37,4.05,32.63,8.08,49.14,12.17-.47,1.9-.83,3.72-1.37,5.48-8.25,27.07-25.48,46.03-51.68,56.77-11.52,4.72-23.58,6.76-36.01,6.97-14.33,.24-28.1-2.27-41.13-8.24-24.81-11.36-41.4-30.15-49.11-56.26-8.33-28.25-5.11-55.3,11.2-80.13,12.39-18.86,29.95-31.16,51.77-36.83,29.99-7.79,58.26-4.02,83.74,14.48,12.06,8.75,20.92,20.26,27.22,33.74,.23,.5,.41,1.03,.73,1.83Z"/><path class="cls-1" d="M984.69,166.98h49.63c.43,2.07,.74,4.16,1.31,6.17,3.49,12.28,16.32,15.26,25.23,10.98,8.32-3.99,9.21-15.57,1.63-20.86-4.16-2.9-8.98-4.32-13.79-5.65-5.83-1.61-11.72-3.01-17.57-4.55-7.59-2.01-14.75-5.04-21.34-9.34-17.7-11.57-25.33-28.25-24.19-48.96,1.5-27.16,20.65-45.03,45.23-50.66,14.26-3.27,28.58-3.2,42.62,.91,21.88,6.42,35.15,21.21,40.45,43.23,.93,3.85,1.39,7.82,2.1,11.91h-48.81c-.51-2.07-.89-4.16-1.53-6.17-3.53-10.98-14.61-13.45-23.05-9.44-8.44,4.01-8.67,16.57-1.57,20.6,3.92,2.23,8.15,4.06,12.43,5.49,6.14,2.06,12.47,3.56,18.7,5.36,9.57,2.77,18.47,6.96,26.26,13.2,13.73,11,20.05,25.44,19.39,42.96-1.06,28.18-18.64,46.85-45.3,52.77-14.56,3.24-29.21,3.2-43.57-.94-23.35-6.73-37.49-22.33-42.82-45.93-.67-2.97-.99-6.02-1.44-9.05-.09-.61-.01-1.24-.01-2.04Z"/><path class="cls-1" d="M910.82,0h53.02V223.36h-53.02V0Z"/><path class="cls-1" d="M829.52,223.37V.03h53.13V223.37h-53.13Z"/><path class="cls-1" d="M197.25,223.21V67h53.1V223.21h-53.1Z"/><path class="cls-1" d="M1157.69,166.42c16.3,0,29.08,12.52,29.06,28.46-.03,16.13-12.75,28.67-29.09,28.65-16.41-.02-29.37-12.67-29.36-28.68,0-15.84,13.02-28.43,29.39-28.43Z"/><rect class="cls-1" x="197.25" width="53.1" height="53.1"/></g></g></svg>